<svg xmlns="http://www.w3.org/2000/svg" xmlns:xlink="http://www.w3.org/1999/xlink" width="128" zoomAndPan="magnify" viewBox="0 0 96 95.999999" height="128" preserveAspectRatio="xMidYMid meet" version="1.0"><defs><clipPath id="9443c15ab0"><path d="M 0 0 L 95.25 0 L 95.25 95.25 L 0 95.25 Z M 0 0 " clip-rule="nonzero"/></clipPath></defs><g clip-path="url(#9443c15ab0)"><path fill="#0089e0" d="M 95.097656 47.550781 C 95.097656 49.105469 95.019531 50.660156 94.867188 52.210938 C 94.714844 53.757812 94.488281 55.296875 94.183594 56.824219 C 93.878906 58.351562 93.503906 59.859375 93.050781 61.351562 C 92.597656 62.839844 92.074219 64.304688 91.476562 65.746094 C 90.882812 67.183594 90.21875 68.589844 89.484375 69.964844 C 88.75 71.335938 87.949219 72.671875 87.085938 73.964844 C 86.21875 75.261719 85.292969 76.507812 84.304688 77.714844 C 83.316406 78.917969 82.273438 80.070312 81.171875 81.171875 C 80.070312 82.273438 78.917969 83.316406 77.714844 84.304688 C 76.507812 85.292969 75.261719 86.21875 73.964844 87.085938 C 72.671875 87.949219 71.335938 88.75 69.964844 89.484375 C 68.589844 90.21875 67.183594 90.882812 65.746094 91.476562 C 64.304688 92.074219 62.839844 92.597656 61.351562 93.050781 C 59.859375 93.503906 58.351562 93.878906 56.824219 94.183594 C 55.296875 94.488281 53.757812 94.714844 52.210938 94.867188 C 50.660156 95.019531 49.105469 95.097656 47.546875 95.097656 C 45.992188 95.097656 44.4375 95.019531 42.886719 94.867188 C 41.339844 94.714844 39.800781 94.488281 38.273438 94.183594 C 36.746094 93.878906 35.238281 93.503906 33.746094 93.050781 C 32.257812 92.597656 30.792969 92.074219 29.351562 91.476562 C 27.914062 90.882812 26.507812 90.21875 25.132812 89.484375 C 23.761719 88.75 22.425781 87.949219 21.132812 87.085938 C 19.835938 86.21875 18.589844 85.292969 17.382812 84.304688 C 16.179688 83.316406 15.027344 82.273438 13.925781 81.171875 C 12.824219 80.070312 11.78125 78.917969 10.792969 77.714844 C 9.804688 76.507812 8.878906 75.261719 8.011719 73.964844 C 7.148438 72.671875 6.347656 71.335938 5.613281 69.964844 C 4.878906 68.589844 4.214844 67.183594 3.621094 65.746094 C 3.023438 64.304688 2.5 62.839844 2.046875 61.351562 C 1.59375 59.859375 1.21875 58.351562 0.914062 56.824219 C 0.609375 55.296875 0.382812 53.757812 0.230469 52.210938 C 0.078125 50.660156 0 49.105469 0 47.550781 C 0 45.992188 0.078125 44.4375 0.230469 42.886719 C 0.382812 41.339844 0.609375 39.800781 0.914062 38.273438 C 1.21875 36.746094 1.59375 35.238281 2.046875 33.746094 C 2.5 32.257812 3.023438 30.792969 3.621094 29.351562 C 4.214844 27.914062 4.878906 26.507812 5.613281 25.132812 C 6.347656 23.761719 7.148438 22.425781 8.011719 21.132812 C 8.878906 19.835938 9.804688 18.589844 10.792969 17.382812 C 11.78125 16.179688 12.824219 15.027344 13.925781 13.925781 C 15.027344 12.824219 16.179688 11.78125 17.382812 10.792969 C 18.589844 9.804688 19.835938 8.878906 21.132812 8.011719 C 22.425781 7.148438 23.761719 6.347656 25.132812 5.613281 C 26.507812 4.878906 27.914062 4.214844 29.351562 3.621094 C 30.792969 3.023438 32.257812 2.5 33.746094 2.046875 C 35.238281 1.59375 36.746094 1.21875 38.273438 0.914062 C 39.800781 0.609375 41.339844 0.382812 42.886719 0.230469 C 44.4375 0.078125 45.992188 0 47.546875 0 C 49.105469 0 50.660156 0.078125 52.210938 0.230469 C 53.757812 0.382812 55.296875 0.609375 56.824219 0.914062 C 58.351562 1.21875 59.859375 1.59375 61.351562 2.046875 C 62.839844 2.5 64.304688 3.023438 65.746094 3.621094 C 67.183594 4.214844 68.589844 4.878906 69.964844 5.613281 C 71.335938 6.347656 72.671875 7.148438 73.964844 8.011719 C 75.261719 8.878906 76.507812 9.804688 77.714844 10.792969 C 78.917969 11.78125 80.070312 12.824219 81.171875 13.925781 C 82.273438 15.027344 83.316406 16.179688 84.304688 17.382812 C 85.292969 18.589844 86.21875 19.835938 87.085938 21.132812 C 87.949219 22.425781 88.75 23.761719 89.484375 25.132812 C 90.21875 26.507812 90.882812 27.914062 91.476562 29.351562 C 92.074219 30.792969 92.597656 32.257812 93.050781 33.746094 C 93.503906 35.238281 93.878906 36.746094 94.183594 38.273438 C 94.488281 39.800781 94.714844 41.339844 94.867188 42.886719 C 95.019531 44.4375 95.097656 45.992188 95.097656 47.550781 Z M 95.097656 47.550781 " fill-opacity="1" fill-rule="nonzero"/></g><path fill="#ffffff" d="M 49.011719 23.851562 C 48.195312 23.242188 47.09375 23.242188 46.273438 23.851562 L 19.285156 45.285156 L 19.285156 47.546875 L 26.570312 47.546875 C 27.082031 47.546875 27.519531 47.96875 27.519531 48.5 L 27.519531 69.078125 C 27.519531 69.914062 28.207031 70.601562 29.042969 70.601562 L 42.183594 70.601562 L 42.183594 57.4375 C 42.183594 54.433594 44.621094 52 47.625 52 C 50.628906 52 53.066406 54.433594 53.066406 57.4375 L 53.066406 70.601562 L 66.207031 70.601562 C 67.042969 70.601562 67.730469 69.914062 67.730469 69.078125 L 67.730469 48.480469 C 67.730469 47.96875 68.148438 47.53125 68.679688 47.53125 L 75.964844 47.53125 L 75.964844 45.09375 Z M 49.011719 23.851562 " fill-opacity="1" fill-rule="nonzero"/></svg>